#!OML:ASF H:\BabyWalks\Project 1\Capture day 1\Session 1\baby.ASF
:FULLY-SPECIFIED
:DEGREES
550
root 18.0033 18.09 -0.974153 233.539 82.9695 224.342
lowerback 25.8923 -1.15662 -2.72366
upperback 4.52042 -1.58421 2.37485
thorax -9.19696 -0.471176 4.71766
lowerneck -5.06332 -0.232887 8.44079
upperneck -2.62571 -0.72854 -4.71874
head -0.00398458 -0.436184 -3.00681
rclavicle 2.18663e-015 -2.22639e-014
rhumerus -48.7957 18.1031 -81.7074
rradius 60.0859
rwrist -5.6141
rhand -14.4405 -16.5468
rfingers 7.12502
rthumb 11.7043 -46.1998
lclavicle 2.18663e-015 -2.22639e-014
lhumerus -30.8093 -15.7701 69.4972
lradius 85.2313
lwrist 3.00945
lhand -6.29164 3.47461
lfingers 7.12502
lthumb 19.552 32.5115
rfemur -29.1781 0.100712 22.1569
rtibia 42.0836
rfoot -18.2454 3.94147
rtoes -17.3047
lfemur -11.3256 0.556266 -14.6689
ltibia 25.3205
lfoot -20.8607 -0.225876
ltoes -1.54373
551
root 18.1269 18.0894 -1.00875 235.368 83.4204 226.399
lowerback 25.6208 -1.25003 -2.74819
upperback 4.35075 -1.71391 2.48328
thorax -9.23084 -0.533795 4.89123
lowerneck -4.96387 -0.117413 8.74892
upperneck -2.32014 -0.586542 -5.49182
head 0.0859142 -0.368279 -3.33178
rclavicle -1.80894e-014 2.98177e-014
rhumerus -49.1838 17.9094 -80.7684
rradius 60.0405
rwrist -5.38522
rhand -14.828 -16.5828
rfingers 7.12502
rthumb 11.3307 -46.2568
lclavicle -1.80894e-014 2.98177e-014
lhumerus -30.8011 -15.6907 69.4156
lradius 85.2239
lwrist 2.9324
lhand -6.53819 3.55659
lfingers 7.12502
lthumb 19.3149 32.6174
rfemur -28.9167 -0.0296408 22.2387
rtibia 41.222
rfoot -18.4353 3.94687
rtoes -17.1455
lfemur -10.0512 0.304384 -14.9621
ltibia 24.4483
lfoot -20.9239 0.223408
ltoes -1.40612
552
root 18.2513 18.0877 -1.04185 237.358 83.9011 228.59
lowerback 25.3404 -1.3233 -2.7949
upperback 4.18319 -1.82381 2.58394
thorax -9.25796 -0.586447 5.06139
lowerneck -4.87742 -0.0117469 9.03316
upperneck -2.01115 -0.452223 -6.26042
head 0.181031 -0.304074 -3.65511
rclavicle -2.04748e-014 2.78299e-014
rhumerus -49.5341 17.6814 -79.8185
rradius 60.0461
rwrist -5.34453
rhand -15.2874 -16.661
rfingers 7.12502
rthumb 10.8875 -46.3587
lclavicle -2.04748e-014 2.78299e-014
lhumerus -30.8207 -15.5732 69.3732
lradius 85.2085
lwrist 2.89784
lhand -6.80067 3.64735
lfingers 7.12502
lthumb 19.0625 32.7332
rfemur -28.698 -0.113511 22.282
rtibia 40.4395
rfoot -18.6733 3.95047
rtoes -16.974
lfemur -8.86289 0.0980076 -15.2941
ltibia 23.6918
lfoot -20.9668 0.579966
ltoes -1.5195
553
root 18.3768 18.0857 -1.07313 239.496 84.4103 230.905
lowerback 25.0503 -1.37985 -2.87692
upperback 4.02239 -1.92108 2.67849
thorax -9.27139 -0.632246 5.23976
lowerneck -4.79836 0.0873092 9.29038
upperneck -1.71219 -0.320925 -7.0185
head 0.276248 -0.241296 -3.97375
rclavicle 8.54774e-015 1.43125e-014
rhumerus -49.832 17.4339 -78.8668
rradius 60.082
rwrist -5.47752
rhand -15.7851 -16.7885
rfingers 7.12502
rthumb 10.4075 -46.5109
lclavicle 8.54774e-015 1.43125e-014
lhumerus -30.8781 -15.4085 69.3691
lradius 85.2003
lwrist 2.91137
lhand -7.06026 3.76109
lfingers 7.12502
lthumb 18.8129 32.8713
rfemur -28.5046 -0.145367 22.2789
rtibia 39.7028
rfoot -18.9219 3.96192
rtoes -16.7641
lfemur -7.73509 -0.0504587 -15.6619
ltibia 22.988
lfoot -20.9453 0.805264
ltoes -1.89899
554
root 18.5019 18.0722 -1.10203 241.872 84.9368 233.436
lowerback 24.753 -1.42066 -2.9873
upperback 3.87148 -2.00448 2.7687
thorax -9.2692 -0.670813 5.42392
lowerneck -4.7215 0.17877 9.525
upperneck -1.43331 -0.194322 -7.76301
head 0.367018 -0.180793 -4.2872
rclavicle -1.63003e-014 3.53837e-014
rhumerus -50.0695 17.1588 -77.9175
rradius 60.127
rwrist -5.73871
rhand -16.2699 -16.961
rfingers 7.12502
rthumb 9.9398 -46.7064
lclavicle -1.63003e-014 3.53837e-014
lhumerus -30.9773 -15.2108 69.4022
lradius 85.2045
lwrist 2.96923
lhand -7.3063 3.89526
lfingers 7.12502
lthumb 18.5762 33.0283
rfemur -28.3612 -0.122124 22.2382
rtibia 39.0471
rfoot -19.1658 3.9905
rtoes -16.5228
lfemur -6.68469 -0.132266 -16.0468
ltibia 22.3699
lfoot -20.8667 0.875167
ltoes -2.5477
555
root 18.6285 18.0698 -1.1286 244.624 85.4583 236.326
lowerback 24.4561 -1.45199 -3.11144
upperback 3.73154 -2.07743 2.85955
thorax -9.25421 -0.703982 5.61243
lowerneck -4.64445 0.267582 9.74977
upperneck -1.18601 -0.0670903 -8.49759
head 0.449482 -0.11993 -4.59902
rclavicle 7.95139e-016 1.45113e-014
rhumerus -50.2429 16.8531 -76.9806
rradius 60.1647
rwrist -6.0708
rhand -16.7114 -17.1708
rfingers 7.12502
rthumb 9.51376 -46.936
lclavicle 7.95139e-016 1.45113e-014
lhumerus -31.1237 -14.9818 69.4679
lradius 85.2195
lwrist 3.06396
lhand -7.52934 4.0342
lfingers 7.12502
lthumb 18.3617 33.1876
rfemur -28.2036 -0.0321801 22.1783
rtibia 38.4299
rfoot -19.3995 4.04544
rtoes -16.2057
lfemur -5.70299 -0.138208 -16.4209
ltibia 21.8303
lfoot -20.7294 0.76349
ltoes -3.43513
556
root 18.7552 18.0671 -1.15233 247.798 85.9677 239.624
lowerback 24.1638 -1.47918 -3.24903
upperback 3.60617 -2.14642 2.95152
thorax -9.22398 -0.734918 5.80779
lowerneck -4.59932 0.356361 9.89988
upperneck -0.918119 0.062066 -9.56914
head 0.490027 -0.064518 -4.48975
rclavicle -4.23411e-014 1.39149e-014
rhumerus -50.3409 16.5208 -76.0645
rradius 60.1714
rwrist -6.41499
rhand -17.0928 -17.4032
rfingers 7.12502
rthumb 9.14575 -47.1849
lclavicle -4.23411e-014 1.39149e-014
lhumerus -31.3166 -14.7207 69.5632
lradius 85.2376
lwrist 3.17587
lhand -7.73553 4.16636
lfingers 7.12502
lthumb 18.1633 33.3383
rfemur -28.0571 0.126646 22.0972
rtibia 37.8865
rfoot -19.6099 4.12396
rtoes -15.8633
lfemur -4.81898 -0.0606692 -16.7755
ltibia 21.4253
lfoot -20.5515 0.455996
ltoes -4.51347
557
root 18.8817 18.0642 -1.17302 251.458 86.4522 243.4
lowerback 23.8868 -1.50444 -3.38371
upperback 3.49214 -2.21081 3.04039
thorax -9.18875 -0.763577 5.99628
lowerneck -4.48572 0.438492 10.0984
upperneck -0.770782 0.188532 -10.3021
head 0.530846 -0.00411417 -4.74661
rclavicle -4.02539e-015 1.72943e-014
rhumerus -50.3819 16.14 -75.1842
rradius 60.1405
rwrist -6.73006
rhand -17.4181 -17.6367
rfingers 7.12502
rthumb 8.83185 -47.4319
lclavicle -4.02539e-015 1.72943e-014
lhumerus -31.5536 -14.455 69.6824
lradius 85.2437
lwrist 3.28699
lhand -7.92549 4.28542
lfingers 7.12502
lthumb 17.9805 33.4743
rfemur -27.8942 0.362093 21.9976
rtibia 37.3755
rfoot -19.7588 4.22536
rtoes -15.4466
lfemur -4.00892 0.100431 -17.0971
ltibia 21.1104
lfoot -20.3032 -0.0609225
ltoes -5.72689
558
root 19.0075 18.0606 -1.19041 255.72 86.8983 247.776
lowerback 23.6344 -1.52966 -3.5025
upperback 3.39125 -2.26966 3.12758
thorax -9.15226 -0.789742 6.17222
lowerneck -4.36196 0.517561 10.2944
upperneck -0.67272 0.311718 -11.0125
head 0.55622 0.055655 -4.99714
rclavicle -3.13583e-014 1.21259e-014
rhumerus -50.3699 15.7105 -74.3467
rradius 60.0653
rwrist -6.99309
rhand -17.6982 -17.8541
rfingers 7.12502
rthumb 8.56163 -47.6605
lclavicle -3.13583e-014 1.21259e-014
lhumerus -31.8276 -14.1943 69.8269
lradius 85.2226
lwrist 3.37725
lhand -8.11168 4.37948
lfingers 7.12502
lthumb 17.8014 33.5847
rfemur -27.7223 0.676408 21.891
rtibia 36.9492
rfoot -19.8713 4.33542
rtoes -15.004
lfemur -3.33762 0.343324 -17.3693
ltibia 21.0295
lfoot -20.0507 -0.779691
ltoes -7.01088
559
root 19.1318 18.056 -1.20447 260.564 87.2905 252.734
lowerback 23.4147 -1.55994 -3.5872
upperback 3.30222 -2.32514 3.2145
thorax -9.12094 -0.814736 6.32786
lowerneck -4.23877 0.594277 10.4872
upperneck -0.61604 0.431137 -11.6971
head 0.570105 0.114473 -5.24015
rclavicle -3.4983e-014 1.84637e-014
rhumerus -50.3146 15.2316 -73.5631
rradius 59.9453
rwrist -7.19728
rhand -17.9544 -18.0484
rfingers 7.12502
rthumb 8.31432 -47.8648
lclavicle -3.4983e-014 1.84637e-014
lhumerus -32.1314 -13.9472 69.9974
lradius 85.156
lwrist 3.43464
lhand -8.29922 4.44342
lfingers 7.12502
lthumb 17.6209 33.6649
rfemur -27.5356 1.06602 21.7892
rtibia 36.6088
rfoot -19.9479 4.43484
rtoes -14.579
lfemur -2.83971 0.659674 -17.5765
ltibia 21.247
lfoot -19.8111 -1.69127
ltoes -8.33101
